<?xml version="1.0" encoding="UTF-8"?>
<svg xmlns="http://www.w3.org/2000/svg" width="240" height="240" viewBox="0 0 240 240" fill="none">
  <path fill-rule="evenodd" clip-rule="evenodd" d="M162.007 154.595C152.987 153.478 146.932 144.839 148.954 135.972C150.685 128.38 157.997 123.248 165.72 124.204C174.741 125.32 180.796 133.96 178.774 142.826C177.043 150.419 169.731 155.551 162.007 154.595ZM207.542 153.814L209.771 141.105C210.014 139.722 209.09 138.405 207.708 138.162L198.558 136.555C198.296 133.334 197.587 130.21 196.485 127.254L203.468 122.353C204.617 121.547 204.895 119.961 204.09 118.812L196.685 108.249C195.879 107.099 194.295 106.821 193.146 107.627L186.081 112.586C183.955 110.819 181.606 109.294 179.067 108.062L180.576 99.4545C180.819 98.0719 179.895 96.7543 178.513 96.5117L165.813 94.2814C164.431 94.0386 163.114 94.9628 162.872 96.3458L161.415 104.654C158.057 104.888 154.8 105.609 151.727 106.756L146.829 99.7686C146.023 98.619 144.439 98.3408 143.29 99.1469L132.734 106.557C131.585 107.362 131.307 108.948 132.113 110.097L137.069 117.167C135.138 119.493 133.497 122.088 132.211 124.904L124.567 123.562C123.185 123.319 121.868 124.244 121.626 125.626L119.397 138.335C119.154 139.718 120.078 141.035 121.46 141.278L129.206 142.639C129.479 145.585 130.125 148.45 131.105 151.173L124.039 156.132C122.891 156.939 122.613 158.524 123.419 159.673L130.823 170.237C131.629 171.386 133.213 171.664 134.362 170.858L141.345 165.956C143.844 168.082 146.661 169.87 149.738 171.234L148.281 179.542C148.039 180.925 148.963 182.242 150.344 182.485L163.045 184.715C164.427 184.958 165.743 184.034 165.986 182.651L167.495 174.043C170.302 173.75 173.03 173.117 175.63 172.18L180.586 179.25C181.392 180.399 182.976 180.677 184.124 179.871L194.681 172.462C195.829 171.655 196.107 170.07 195.302 168.921L190.404 161.933C192.361 159.628 194.032 157.053 195.349 154.253L204.601 155.878C205.983 156.121 207.3 155.196 207.542 153.814Z" fill="#AF9F8F"></path>
  <path fill-rule="evenodd" clip-rule="evenodd" d="M132.859 101.563L131.715 108.089L136.212 108.879L137.266 102.867L132.859 101.563Z" fill="#AF9F8F"></path>
  <path fill-rule="evenodd" clip-rule="evenodd" d="M124.152 151.076L122.975 157.786L128.248 158.713L129.425 152.002L124.152 151.076Z" fill="#AF9F8F"></path>
  <path fill-rule="evenodd" clip-rule="evenodd" d="M196.902 164.099L195.712 170.884L192.984 170.405L193.886 165.264L196.902 164.099Z" fill="#AF9F8F"></path>
  <path fill-rule="evenodd" clip-rule="evenodd" d="M205.71 113.871L204.52 120.656L200.286 119.913L201.303 114.113L205.71 113.871Z" fill="#AF9F8F"></path>
  <path fill-rule="evenodd" clip-rule="evenodd" d="M163.197 147.81C154.177 146.693 148.122 138.054 150.144 129.187C151.875 121.595 159.187 116.463 166.91 117.419C175.931 118.536 181.986 127.175 179.964 136.041C178.233 143.634 170.921 148.766 163.197 147.81ZM208.732 147.029L210.961 134.32C211.204 132.937 210.28 131.62 208.898 131.377L199.747 129.77C199.486 126.549 198.777 123.425 197.675 120.47L204.658 115.568C205.807 114.762 206.085 113.176 205.279 112.027L197.875 101.464C197.069 100.314 195.485 100.036 194.336 100.842L187.271 105.801C185.145 104.034 182.796 102.509 180.257 101.277L181.766 92.6696C182.009 91.287 181.085 89.9694 179.703 89.7269L167.003 87.4966C165.621 87.2537 164.304 88.178 164.062 89.5609L162.605 97.8691C159.247 98.1034 155.99 98.824 152.917 99.9714L148.018 92.9834C147.213 91.8341 145.629 91.5556 144.48 92.3621L133.924 99.7714C132.775 100.578 132.497 102.163 133.303 103.312L138.259 110.382C136.327 112.708 134.687 115.303 133.401 118.119L125.757 116.777C124.375 116.535 123.058 117.459 122.816 118.841L120.587 131.55C120.344 132.933 121.268 134.25 122.65 134.493L130.396 135.853C130.669 138.8 131.314 141.665 132.295 144.388L125.229 149.347C124.081 150.154 123.803 151.739 124.608 152.888L132.013 163.451C132.818 164.601 134.403 164.879 135.552 164.073L142.535 159.172C145.034 161.297 147.851 163.084 150.928 164.449L149.471 172.757C149.229 174.14 150.152 175.458 151.534 175.7L164.235 177.93C165.616 178.173 166.933 177.249 167.176 175.866L168.685 167.258C171.492 166.965 174.22 166.332 176.82 165.395L181.776 172.465C182.581 173.614 184.166 173.892 185.314 173.086L195.871 165.677C197.019 164.871 197.297 163.285 196.492 162.136L191.593 155.148C193.551 152.843 195.221 150.268 196.539 147.468L205.791 149.093C207.173 149.336 208.49 148.411 208.732 147.029Z" fill="#E4E5E6"></path>
  <path fill-rule="evenodd" clip-rule="evenodd" d="M64.7112 167.444C59.5999 166.812 56.1684 161.916 57.3144 156.892C58.2954 152.589 62.4388 149.682 66.8154 150.224C71.9267 150.856 75.3578 155.751 74.2122 160.776C73.2309 165.078 69.0874 167.987 64.7112 167.444ZM90.5142 167.002L91.7772 159.8C91.9144 159.017 91.391 158.27 90.6079 158.133L85.4227 157.222C85.2743 155.397 84.8727 153.627 84.2484 151.952L88.2056 149.175C88.8562 148.718 89.0138 147.819 88.5571 147.168L84.3616 141.182C83.9048 140.531 83.0072 140.373 82.3563 140.83L78.3527 143.64C77.1481 142.639 75.8165 141.775 74.3778 141.077L75.2335 136.199C75.3707 135.416 74.8473 134.669 74.0645 134.531L66.8678 133.268C66.0846 133.13 65.3384 133.654 65.2009 134.437L64.3752 139.145C62.4728 139.278 60.6271 139.686 58.8857 140.337L56.1101 136.377C55.6537 135.726 54.7561 135.568 54.1048 136.025L48.123 140.224C47.4724 140.68 47.3147 141.578 47.7711 142.23L50.5797 146.236C49.4852 147.554 48.5553 149.024 47.8268 150.621L43.4955 149.86C42.7123 149.722 41.966 150.246 41.8285 151.029L40.5655 158.231C40.4284 159.014 40.9517 159.761 41.7345 159.899L46.124 160.67C46.279 162.339 46.6447 163.962 47.2 165.506L43.1964 168.316C42.5457 168.773 42.3881 169.671 42.8445 170.322L47.0404 176.308C47.4971 176.959 48.3947 177.117 49.0456 176.66L53.0027 173.883C54.4191 175.087 56.0154 176.1 57.7589 176.873L56.9335 181.581C56.796 182.365 57.3193 183.111 58.1021 183.249L65.2991 184.513C66.082 184.65 66.8282 184.127 66.9658 183.343L67.8211 178.465C69.4112 178.299 70.9572 177.94 72.4305 177.409L75.2388 181.416C75.6955 182.067 76.5931 182.224 77.244 181.768L83.2259 177.569C83.8768 177.112 84.0341 176.214 83.5777 175.563L80.8021 171.603C81.9114 170.297 82.8578 168.838 83.6044 167.251L88.8473 168.172C89.6305 168.309 90.3767 167.786 90.5142 167.002Z" fill="#AF9F8F"></path>
  <path fill-rule="evenodd" clip-rule="evenodd" d="M48.194 137.394L47.5454 141.092L50.0935 141.539L50.691 138.133L48.194 137.394Z" fill="#AF9F8F"></path>
  <path fill-rule="evenodd" clip-rule="evenodd" d="M43.26 165.451L42.5933 169.253L45.5815 169.778L46.2483 165.975L43.26 165.451Z" fill="#AF9F8F"></path>
  <path fill-rule="evenodd" clip-rule="evenodd" d="M84.484 172.83L83.8097 176.675L82.2644 176.403L82.7752 173.491L84.484 172.83Z" fill="#AF9F8F"></path>
  <path fill-rule="evenodd" clip-rule="evenodd" d="M89.4755 144.368L88.8012 148.213L86.4019 147.792L86.9783 144.505L89.4755 144.368Z" fill="#AF9F8F"></path>
  <path fill-rule="evenodd" clip-rule="evenodd" d="M65.3853 163.6C60.274 162.967 56.8425 158.072 57.9884 153.047C58.9695 148.745 63.1129 145.837 67.4895 146.379C72.6007 147.011 76.0322 151.907 74.8863 156.931C73.9053 161.233 69.7618 164.142 65.3853 163.6ZM91.1883 163.157L92.4513 155.956C92.5884 155.172 92.0651 154.426 91.2823 154.288L86.0968 153.377C85.9487 151.553 85.5468 149.782 84.9225 148.107L88.8796 145.33C89.5306 144.873 89.6879 143.975 89.2315 143.324L85.0356 137.337C84.5792 136.686 83.6813 136.529 83.0307 136.985L79.0268 139.795C77.8221 138.794 76.4909 137.93 75.0522 137.232L75.9076 132.355C76.0451 131.571 75.5214 130.824 74.7386 130.687L67.5419 129.423C66.7587 129.285 66.0125 129.809 65.8753 130.593L65.0496 135.301C63.1469 135.434 61.3012 135.842 59.5597 136.492L56.7842 132.532C56.3278 131.881 55.4302 131.723 54.7792 132.18L48.7974 136.379C48.1464 136.836 47.9888 137.734 48.4452 138.385L51.2538 142.392C50.1596 143.71 49.2294 145.18 48.5009 146.776L44.1695 146.015C43.3864 145.877 42.6401 146.401 42.5026 147.185L41.24 154.386C41.1024 155.17 41.6258 155.917 42.4089 156.054L46.798 156.825C46.953 158.495 47.3187 160.118 47.8744 161.661L43.8704 164.471C43.2198 164.928 43.0622 165.826 43.5186 166.478L47.7148 172.463C48.1712 173.115 49.0688 173.272 49.7197 172.816L53.6768 170.038C55.0931 171.243 56.6895 172.255 58.4329 173.028L57.6076 177.737C57.4701 178.52 57.9934 179.267 58.7766 179.404L65.9732 180.668C66.7564 180.806 67.5023 180.282 67.6398 179.498L68.4952 174.62C70.0853 174.455 71.6312 174.096 73.1046 173.564L75.9128 177.571C76.3696 178.222 77.2672 178.38 77.9181 177.923L83.8999 173.724C84.5509 173.268 84.7085 172.369 84.2518 171.718L81.4762 167.758C82.5858 166.452 83.5323 164.993 84.2785 163.406L89.5217 164.327C90.3045 164.465 91.0508 163.941 91.1883 163.157Z" fill="#E4E5E6"></path>
  <path fill-rule="evenodd" clip-rule="evenodd" d="M129.746 203.529C125.599 205.018 121.032 202.861 119.544 198.711L119.049 197.331L134.066 191.94L134.561 193.32C136.049 197.469 133.893 202.04 129.746 203.529Z" fill="#424444"></path>
  <path fill-rule="evenodd" clip-rule="evenodd" d="M100.387 175.118L106.629 193.374C108.296 198.248 113.595 200.847 118.466 199.179L134.406 193.722C139.277 192.054 141.875 186.751 140.208 181.877L134.003 163.73C131.575 166.648 126.98 169.989 118.375 172.935C109.805 175.869 104.118 175.995 100.387 175.118Z" fill="#848889"></path>
  <path fill-rule="evenodd" clip-rule="evenodd" d="M98.4736 169.523L100.387 175.118C104.118 175.995 109.805 175.869 118.376 172.935C126.98 169.989 131.575 166.648 134.003 163.73L132.053 158.026L98.4736 169.523Z" fill="#AF9F8F"></path>
  <path fill-rule="evenodd" clip-rule="evenodd" d="M137.379 86.0441C129.101 61.9628 102.976 49.1775 78.8971 57.4223C73.9544 59.1147 69.4861 61.5658 65.5755 64.5996C60.6271 76.2725 56.2476 94.1639 66.1123 109.933C82.1591 135.584 95.0052 138.871 100.92 152.621C106.834 166.37 107.977 170.401 112.424 168.879L116.374 167.526C116.681 167.421 116.682 167.421 116.682 167.421L132.671 161.946C135.032 161.138 136.404 158.661 135.81 156.236C131.533 138.793 135.668 121.821 137.382 116.032C137.617 115.35 137.836 114.662 138.039 113.968C138.045 113.951 138.049 113.941 138.049 113.941H138.047C140.628 105.106 140.6 95.4135 137.379 86.0441Z" fill="#FFD366"></path>
  <path fill-rule="evenodd" clip-rule="evenodd" d="M100.92 152.621C95.0054 138.871 82.1592 135.584 66.1125 109.933C56.2477 94.1641 60.6269 76.2724 65.5756 64.5995C50.4403 76.3404 43.6757 96.8224 50.2217 115.967C53.4177 125.313 59.3175 132.966 66.7473 138.353L66.7456 138.354C66.7456 138.354 66.7552 138.36 66.769 138.369C67.3547 138.793 67.9502 139.203 68.554 139.598C73.4529 143.123 87.1106 154.003 94.4082 170.411C95.4232 172.693 98.0236 173.809 100.385 173.001L112.424 168.879C107.976 170.401 106.834 166.37 100.92 152.621Z" fill="#FFB600"></path>
  <path fill-rule="evenodd" clip-rule="evenodd" d="M73.4746 49.4096C72.1622 49.8716 70.7238 49.1819 70.2618 47.8683L67.6217 40.358C67.16 39.0447 67.8496 37.6057 69.162 37.1434C70.4748 36.6814 71.9132 37.3717 72.3749 38.685L75.0149 46.195C75.4769 47.5083 74.7871 48.9476 73.4746 49.4096Z" fill="#FFB600"></path>
  <path fill-rule="evenodd" clip-rule="evenodd" d="M29.1434 122.826C28.6818 121.513 29.3713 120.073 30.6837 119.611L38.1891 116.969C39.5015 116.507 40.9399 117.197 41.4016 118.511C41.8632 119.824 41.1737 121.264 39.861 121.725L32.356 124.368C31.0435 124.83 29.6051 124.139 29.1434 122.826Z" fill="#FFB600"></path>
  <path fill-rule="evenodd" clip-rule="evenodd" d="M41.4438 76.3898C42.0453 75.1342 41.516 73.6285 40.2613 73.0266L33.0877 69.5843C31.833 68.9824 30.3283 69.512 29.7265 70.7676C29.125 72.0232 29.6542 73.5289 30.909 74.1307L38.0829 77.573C39.3373 78.1749 40.8423 77.6453 41.4438 76.3898Z" fill="#FFB600"></path>
  <path fill-rule="evenodd" clip-rule="evenodd" d="M154.728 78.6161C154.266 77.3032 152.828 76.6128 151.515 77.0748L144.01 79.7169C142.698 80.1786 142.008 81.6183 142.47 82.9316C142.931 84.2452 144.37 84.9352 145.682 84.4732L153.187 81.8311C154.5 81.3691 155.19 79.9294 154.728 78.6161Z" fill="#FFB600"></path>
  <path fill-rule="evenodd" clip-rule="evenodd" d="M116.082 50.1147C114.827 49.5128 114.298 48.0068 114.9 46.7516L118.339 39.5733C118.941 38.3177 120.446 37.7881 121.7 38.39C122.955 38.9918 123.484 40.4975 122.883 41.7531L119.443 48.9317C118.841 50.1873 117.336 50.7166 116.082 50.1147Z" fill="#FFB600"></path>
</svg>
